# xmcd
# 
# Track frame offsets:
#     150
#     22504
#     39131
#     51874
#     65998
#     86542
#     107157
#     125441
#     143304
#     151130
#     169812
#     184816
#     209007
#     224485
#     248737
#     269399
#     287925
#     304711
#     321890
# 
# Disc length: 4438
# 
# Revision: 0
# Processed by: cddbd v1.5.2PL0 Copyright (c) Steve Scherf et al.
# Submitted via: fre:ac v1.0.31
# 
DISCID=10115413
DTITLE=Various Artist - StoMo's Artist Collection: Blues and Boogie Vol. 10
DYEAR=2017
DGENRE=Blues
TTITLE0=Al Jones - You Don't Have To Go
TTITLE1=Blues Rocket Men - Blues Day
TTITLE2=Nico Brina - Don't Mess Around With A Pianoman
TTITLE3=Andi's Blues Orchester - Hard Road Blues
TTITLE4=Tin Pan Alley - Bad Dreams
TTITLE5=Al Jones - I Just Wanna Make Love To You
TTITLE6=Blues Rocket Men - Howlin'
TTITLE7=Andi's Blues Orchester - The New Sugar Mama
TTITLE8=Nico Brina - Groggy Froggy Boogie
TTITLE9=Crazy Hambones - Hard Being A Man
TTITLE10=Tin Pan Alley - Hamster Wheel
TTITLE11=Fast Eddy's Blue Band - My Baby She's At Home
TTITLE12=Gottfried Böttger - Henning Pertiet - Just A Closer Walk With Thee
TTITLE13=Ginger Blues - Tennessee Whisky/I'd Rather Go Blind
TTITLE14=Handful Of Blues - Let The Good Times Roll
TTITLE15=Little Willie Littlefield - Bad Bad Whiskey
TTITLE16=Steve "Big Man" Clayton - Travellin' blues
TTITLE17=The Street Rats - Back To Zydeco
TTITLE18=Thomas Scheytt - Hansjakobstrasse 110
EXTD=
EXTT0=
EXTT1=
EXTT2=
EXTT3=
EXTT4=
EXTT5=
EXTT6=
EXTT7=
EXTT8=
EXTT9=
EXTT10=
EXTT11=
EXTT12=
EXTT13=
EXTT14=
EXTT15=
EXTT16=
EXTT17=
EXTT18=
PLAYORDER=
